<svg aria-hidden="true" style="position: absolute; width: 0; height: 0; overflow: hidden;" version="1.1" xmlns="http://www.w3.org/2000/svg" xmlns:xlink="http://www.w3.org/1999/xlink">
<defs>
<symbol id="portfolio" viewBox="0 0 32 32">
<path d="M25.792 16.16h-1.832v-5.6c0.006-0.072 0.006-0.144 0-0.216 0.004-0.024 0.004-0.048 0-0.072-0.076-0.581-0.362-1.114-0.804-1.499s-1.010-0.594-1.596-0.589h-3.424c0.004-1.205-0.634-2.32-1.676-2.926s-2.327-0.611-3.372-0.012c-1.046 0.599-1.692 1.71-1.696 2.914h-3.392c-0.602-0.002-1.183 0.222-1.628 0.628s-0.72 0.964-0.772 1.564v9.808c0 0.637 0.253 1.247 0.703 1.697s1.061 0.703 1.697 0.703h9.792v4c0 0.212 0.084 0.416 0.234 0.566s0.354 0.234 0.566 0.234h7.2c0.212 0 0.416-0.084 0.566-0.234s0.234-0.354 0.234-0.566v-9.6c0-0.212-0.084-0.416-0.234-0.566s-0.354-0.234-0.566-0.234l-0 0zM14.784 6.64c0.426 0.003 0.837 0.157 1.16 0.436s0.535 0.663 0.6 1.084h-3.552c0.066-0.427 0.283-0.816 0.612-1.095s0.748-0.43 1.18-0.425l-0-0zM8 9.76h13.552c0.199-0.001 0.391 0.072 0.539 0.205s0.241 0.317 0.261 0.515v0.080c-0.027 0.831-0.412 1.61-1.056 2.136-0.759 0.63-1.717 0.97-2.704 0.96h-3.008v-0.696c0-0.286-0.153-0.55-0.4-0.693s-0.553-0.143-0.8 0c-0.248 0.143-0.4 0.407-0.4 0.693v0.696h-3.016c-2.064 0-3.744-1.392-3.76-3.064v-0.128c0.023-0.194 0.117-0.372 0.263-0.502s0.334-0.202 0.529-0.202v-0zM8 20.96c-0.212 0-0.416-0.084-0.566-0.234s-0.234-0.354-0.234-0.566v-6.272c1.051 0.894 2.388 1.38 3.768 1.368h3.016l-0 0.104c0 0.286 0.152 0.55 0.4 0.693s0.552 0.143 0.8 0c0.247-0.143 0.4-0.407 0.4-0.693v-0.104h3.008c1.367 0.016 2.696-0.458 3.744-1.336v2.24h-3.744c-0.212 0-0.416 0.084-0.566 0.234s-0.234 0.354-0.234 0.566v4l-9.792 0zM24.992 25.76h-5.6v-8h5.6v8z"></path>
<path d="M20.992 20.96h2.4c0.286 0 0.55-0.152 0.693-0.4s0.143-0.553 0-0.8c-0.143-0.247-0.407-0.4-0.693-0.4h-2.4c-0.286 0-0.55 0.152-0.693 0.4s-0.143 0.553 0 0.8c0.143 0.247 0.407 0.4 0.693 0.4z"></path>
<path d="M20.992 24.16h2.4c0.286 0 0.55-0.152 0.693-0.4s0.143-0.553 0-0.8c-0.143-0.247-0.407-0.4-0.693-0.4h-2.4c-0.286 0-0.55 0.152-0.693 0.4s-0.143 0.553 0 0.8c0.143 0.248 0.407 0.4 0.693 0.4z"></path>
</symbol>
<symbol id="sms" viewBox="0 0 32 32">
<path d="M22.336 22.312v-13.112c0-0.849-0.337-1.663-0.937-2.263s-1.414-0.937-2.263-0.937h-8c-0.645 0.002-1.274 0.198-1.805 0.564s-0.939 0.883-1.171 1.484h-4.96c-0.424 0-0.831 0.169-1.131 0.469s-0.469 0.707-0.469 1.131v4.72c0 0.424 0.169 0.831 0.469 1.131s0.707 0.469 1.131 0.469h4.736v6.928c0 0.849 0.337 1.663 0.937 2.263s1.414 0.937 2.263 0.937h8c0.849 0 1.663-0.337 2.263-0.937s0.937-1.414 0.937-2.263l0-0.584zM11.136 7.6h8c0.424 0 0.831 0.169 1.131 0.469s0.469 0.707 0.469 1.131v12.312h-11.2v-4.512l0.928 1.152c0.163 0.202 0.413 0.312 0.672 0.296 0.066 0.008 0.134 0.008 0.2 0 0.15-0.040 0.284-0.122 0.388-0.237s0.172-0.258 0.196-0.411l0.296-1.808h1.472c0.424 0 0.831-0.169 1.131-0.469s0.469-0.707 0.469-1.131v-4.744c0-0.424-0.169-0.831-0.469-1.131s-0.707-0.469-1.131-0.469h-3.68c0.303-0.292 0.708-0.453 1.128-0.448v0zM3.2 9.648h10.44v4.72h-2.144c-0.192-0.002-0.378 0.064-0.525 0.187s-0.244 0.295-0.275 0.485l-0.104 0.656-0.84-1.032c-0.037-0.043-0.080-0.081-0.128-0.112-0.040 0-0.072-0.056-0.12-0.080l-0.16-0.024c-0.053-0.007-0.107-0.007-0.16 0h-5.984l-0-4.8zM19.136 24.496h-8c-0.389 0.004-0.767-0.135-1.061-0.39s-0.486-0.608-0.539-0.994h11.2c-0.052 0.386-0.244 0.739-0.539 0.994s-0.672 0.393-1.061 0.39z"></path>
<path d="M9.248 12.048c0 0.442-0.358 0.8-0.8 0.8s-0.8-0.358-0.8-0.8 0.358-0.8 0.8-0.8c0.442 0 0.8 0.358 0.8 0.8z"></path>
<path d="M11.648 12.048c0 0.442-0.358 0.8-0.8 0.8s-0.8-0.358-0.8-0.8c0-0.442 0.358-0.8 0.8-0.8s0.8 0.358 0.8 0.8z"></path>
<path d="M6.848 12.048c0 0.442-0.358 0.8-0.8 0.8s-0.8-0.358-0.8-0.8 0.358-0.8 0.8-0.8c0.442 0 0.8 0.358 0.8 0.8z"></path>
</symbol>
<symbol id="bullhorn" viewBox="0 0 32 32">
<path d="M26.080 13.764c-0.002-0.647-0.26-1.266-0.717-1.723s-1.077-0.715-1.723-0.717h-3.72c-0.431-0.979-1.136-1.811-2.031-2.396s-1.94-0.898-3.009-0.9h-2.48c-0.212 0-0.416 0.084-0.566 0.234s-0.234 0.354-0.234 0.566v9.456c0 0.212 0.084 0.416 0.234 0.566s0.354 0.234 0.566 0.234h2.48c0.994-0 1.97-0.269 2.825-0.777s1.556-1.238 2.031-2.111h0.664v5.856c0 0.715 0.381 1.375 1 1.732s1.381 0.357 2 0 1-1.018 1-1.732v-5.984c0.359-0.117 0.687-0.314 0.96-0.576 0.464-0.455 0.724-1.078 0.72-1.728v0zM14.88 17.484h-1.68v-7.856h1.68c1.069-0.048 2.112 0.343 2.886 1.082s1.211 1.763 1.211 2.834-0.438 2.094-1.211 2.834c-0.774 0.739-1.816 1.131-2.886 1.082v0.024zM22.44 22.428c-0.221 0-0.4-0.179-0.4-0.4v-5.832h0.8v5.856c-0.013 0.212-0.188 0.376-0.4 0.376v-0zM24.232 14.348c-0.168 0.166-0.396 0.256-0.632 0.248h-3.296c0.061-0.338 0.093-0.681 0.096-1.024-0.001-0.216-0.014-0.433-0.040-0.648h3.28c0.226-0.012 0.447 0.073 0.607 0.233s0.245 0.381 0.233 0.607c0.001 0.221-0.088 0.432-0.248 0.584l0 0z"></path>
<path d="M8.28 16.339l-1.696 1.696c-0.151 0.15-0.237 0.355-0.237 0.568s0.085 0.418 0.237 0.568c0.15 0.151 0.355 0.237 0.568 0.237s0.418-0.085 0.568-0.237l1.696-1.696c0.203-0.203 0.282-0.499 0.208-0.776s-0.291-0.494-0.568-0.568c-0.277-0.074-0.573 0.005-0.776 0.208v0z"></path>
<path d="M8.279 11.067c0.15 0.151 0.355 0.237 0.568 0.237s0.418-0.085 0.568-0.237c0.151-0.15 0.237-0.355 0.237-0.568s-0.085-0.418-0.237-0.568l-1.696-1.696c-0.203-0.203-0.499-0.282-0.776-0.208s-0.494 0.291-0.568 0.568c-0.074 0.277 0.005 0.573 0.208 0.776l1.696 1.696z"></path>
<path d="M9.2 12.904h-2.4c-0.286 0-0.55 0.152-0.693 0.4s-0.143 0.552 0 0.8c0.143 0.247 0.407 0.4 0.693 0.4h2.4c0.286 0 0.55-0.153 0.693-0.4s0.143-0.553 0-0.8c-0.143-0.248-0.407-0.4-0.693-0.4z"></path>
</symbol>
<symbol id="business" viewBox="0 0 32 32">
<path d="M12.456 21.568h-5.008c-0.702 0.002-1.374 0.282-1.87 0.778s-0.776 1.168-0.778 1.87v0.608c0 0.286 0.152 0.55 0.4 0.693s0.552 0.143 0.8 0c0.248-0.143 0.4-0.407 0.4-0.693v-0.624c0-0.278 0.11-0.545 0.307-0.741s0.463-0.307 0.741-0.307h5.008c0.281 0 0.55 0.112 0.747 0.312s0.306 0.471 0.301 0.751v0.608c0 0.286 0.153 0.55 0.4 0.693s0.553 0.143 0.8 0c0.248-0.143 0.4-0.407 0.4-0.693v-0.624c-0.006-0.699-0.288-1.367-0.784-1.86s-1.166-0.77-1.864-0.772l0-0z"></path>
<path d="M9.952 21.208c0.608 0.002 1.191-0.237 1.622-0.666s0.673-1.011 0.674-1.619c0.001-0.608-0.24-1.191-0.67-1.621s-1.013-0.671-1.621-0.67c-0.608 0.001-1.19 0.243-1.619 0.674s-0.668 1.014-0.666 1.622c0.002 0.604 0.243 1.183 0.67 1.61s1.006 0.668 1.61 0.67zM9.952 18.24v0c0.194-0.021 0.388 0.041 0.534 0.172s0.228 0.317 0.228 0.512c0 0.195-0.083 0.381-0.228 0.512s-0.339 0.193-0.534 0.172c-0.227-0.024-0.427-0.16-0.534-0.362s-0.107-0.443 0-0.645c0.107-0.202 0.307-0.337 0.534-0.362v-0z"></path>
<path d="M24.36 21.568h-5.008c-0.702 0.002-1.374 0.282-1.87 0.778s-0.776 1.168-0.778 1.87v0.608c0 0.286 0.153 0.55 0.4 0.693s0.553 0.143 0.8 0c0.248-0.143 0.4-0.407 0.4-0.693v-0.624c0-0.278 0.11-0.545 0.307-0.741s0.463-0.307 0.741-0.307h5.008c0.278 0 0.544 0.11 0.741 0.307s0.307 0.463 0.307 0.741v0.624c0 0.286 0.152 0.55 0.4 0.693s0.552 0.143 0.8 0c0.248-0.143 0.4-0.407 0.4-0.693v-0.624c-0.006-0.699-0.288-1.367-0.783-1.86s-1.166-0.77-1.864-0.772h0z"></path>
<path d="M19.568 18.928c0 0.607 0.241 1.189 0.67 1.618s1.011 0.67 1.618 0.67 1.189-0.241 1.618-0.67c0.429-0.429 0.67-1.011 0.67-1.618s-0.241-1.189-0.67-1.618c-0.429-0.429-1.011-0.67-1.618-0.67s-1.189 0.241-1.618 0.67c-0.429 0.429-0.67 1.011-0.67 1.618zM21.856 18.24v0c0.183 0 0.358 0.072 0.487 0.201s0.201 0.304 0.201 0.486c0 0.182-0.073 0.357-0.201 0.487s-0.304 0.201-0.487 0.201c-0.182 0-0.357-0.072-0.486-0.201s-0.202-0.304-0.202-0.487c-0.002-0.183 0.070-0.359 0.199-0.489s0.306-0.201 0.489-0.199v-0z"></path>
<path d="M11.552 15.408c0.212 0 0.416-0.084 0.566-0.234s0.234-0.353 0.234-0.566v-0.616c0-0.278 0.11-0.544 0.307-0.741s0.463-0.307 0.741-0.307h5.008c0.278 0 0.545 0.11 0.741 0.307s0.307 0.463 0.307 0.741v0.616c0 0.286 0.153 0.55 0.4 0.693s0.553 0.143 0.8 0c0.248-0.143 0.4-0.407 0.4-0.693v-0.616c0-0.702-0.279-1.376-0.776-1.873s-1.17-0.776-1.873-0.776h-5.008c-0.702 0-1.376 0.279-1.873 0.776s-0.776 1.17-0.776 1.873v0.616c0 0.212 0.084 0.416 0.234 0.566s0.354 0.234 0.566 0.234h0z"></path>
<path d="M15.904 10.976c0.608 0.002 1.191-0.238 1.622-0.666s0.673-1.011 0.674-1.619c0.001-0.608-0.241-1.191-0.67-1.621s-1.013-0.671-1.621-0.67c-0.608 0.001-1.19 0.243-1.619 0.674s-0.669 1.014-0.666 1.622c0.002 0.604 0.243 1.183 0.67 1.61s1.006 0.668 1.61 0.67zM15.904 8.024c0.181 0.002 0.354 0.076 0.481 0.204s0.199 0.303 0.199 0.484c0 0.243-0.13 0.467-0.34 0.589s-0.47 0.121-0.68 0c-0.21-0.122-0.34-0.346-0.34-0.589 0-0.181 0.071-0.355 0.199-0.484s0.3-0.202 0.481-0.204h0z"></path>
</symbol>
<symbol id="shopping-basket" viewBox="0 0 32 32">
<path d="M21.033 20.405h-7.64l-1.224-0.176c-0.837-0.126-1.613-0.515-2.216-1.11s-1-1.366-1.136-2.202l-1.44-8.8c-0.074-0.413-0.308-0.781-0.651-1.023s-0.767-0.34-1.181-0.273c-1.030 0.095-2.049 0.277-3.048 0.544-0.192 0.078-0.346 0.228-0.429 0.418s-0.091 0.404-0.019 0.598c0.072 0.198 0.219 0.359 0.409 0.448s0.408 0.101 0.607 0.032c0.16-0.048 0.96-0.2 2.728-0.448l1.448 8.8c0.193 1.168 0.752 2.245 1.596 3.076s1.929 1.373 3.1 1.548l1.28 0.192h7.816c0.286 0 0.55-0.152 0.693-0.4s0.143-0.552 0-0.8c-0.143-0.247-0.407-0.4-0.693-0.4l-0-0.024z"></path>
<path d="M13.337 22.421c-0.362-0.002-0.709 0.14-0.966 0.394s-0.401 0.601-0.402 0.963 0.143 0.709 0.398 0.964c0.256 0.256 0.603 0.399 0.964 0.398s0.708-0.145 0.963-0.402c0.255-0.257 0.397-0.604 0.395-0.966-0.002-0.358-0.145-0.701-0.398-0.954s-0.596-0.396-0.954-0.398h-0z"></path>
<path d="M19.049 22.421c-0.361 0-0.708 0.144-0.963 0.399s-0.398 0.602-0.397 0.963c0.001 0.361 0.145 0.707 0.401 0.962s0.603 0.397 0.964 0.396c0.361-0.001 0.707-0.146 0.961-0.403s0.396-0.604 0.394-0.965c0-0.36-0.144-0.705-0.399-0.959s-0.601-0.395-0.961-0.393v0z"></path>
<path d="M21.793 10.037h-11.2c-0.212 0-0.416 0.084-0.566 0.234s-0.234 0.354-0.234 0.566v4.8c0 1.061 0.421 2.078 1.172 2.828s1.768 1.172 2.828 1.172h4.8c1.061 0 2.078-0.421 2.829-1.172s1.171-1.768 1.171-2.828v-4.8c0-0.212-0.084-0.416-0.234-0.566s-0.353-0.234-0.566-0.234v0zM20.993 15.637c0 0.637-0.253 1.247-0.703 1.697s-1.061 0.703-1.697 0.703h-4.8c-0.636 0-1.247-0.253-1.697-0.703s-0.703-1.061-0.703-1.697v-4h9.6v4z"></path>
<path d="M16.329 17.165c0.212 0 0.416-0.084 0.566-0.234s0.234-0.354 0.234-0.566l-0.040-3.2c0-0.212-0.084-0.416-0.234-0.566s-0.354-0.234-0.566-0.234c-0.212 0-0.416 0.084-0.566 0.234s-0.234 0.354-0.234 0.566l0.040 3.2c0 0.212 0.084 0.416 0.234 0.566s0.354 0.234 0.566 0.234z"></path>
<path d="M13.929 17.165c0.212 0 0.416-0.084 0.566-0.234s0.234-0.354 0.234-0.566l-0.040-3.2c0-0.212-0.084-0.416-0.234-0.566s-0.354-0.234-0.566-0.234c-0.212 0-0.416 0.084-0.566 0.234s-0.234 0.354-0.234 0.566l0.040 3.2c0 0.212 0.084 0.416 0.234 0.566s0.354 0.234 0.566 0.234z"></path>
<path d="M18.729 17.165c0.212 0 0.416-0.084 0.566-0.234s0.234-0.354 0.234-0.566l-0.040-3.2c0-0.212-0.084-0.416-0.234-0.566s-0.354-0.234-0.566-0.234c-0.212 0-0.416 0.084-0.566 0.234s-0.234 0.354-0.234 0.566l0.040 3.2c0 0.212 0.084 0.416 0.234 0.566s0.354 0.234 0.566 0.234z"></path>
</symbol>
<symbol id="achievement1" viewBox="0 0 32 32">
<path d="M25.917 14.592c0.23-0.258 0.338-0.601 0.296-0.944-0.007-0.149-0.056-0.294-0.141-0.417s-0.203-0.22-0.339-0.279c-0.232 0.257-0.343 0.6-0.304 0.944 0.008 0.15 0.058 0.295 0.144 0.418s0.206 0.219 0.344 0.278z"></path>
<path d="M26.276 14.976c-0.259 0.275-0.388 0.648-0.352 1.024 0.16 0.025 0.323 0.007 0.473-0.052s0.283-0.157 0.383-0.284c0.274-0.264 0.415-0.637 0.384-1.016-0.164-0.037-0.335-0.025-0.492 0.033s-0.295 0.161-0.396 0.295h0z"></path>
<path d="M25.781 15.92c0.085-0.329 0.004-0.678-0.216-0.936-0.098-0.109-0.227-0.187-0.369-0.223s-0.293-0.028-0.431 0.023c-0.079 0.331 0.007 0.68 0.232 0.936 0.096 0.108 0.221 0.185 0.361 0.221s0.287 0.029 0.423-0.021v0z"></path>
<path d="M25.788 17.12c-0.31 0.246-0.5 0.613-0.52 1.008 0.163 0.060 0.339 0.073 0.509 0.037s0.326-0.118 0.451-0.237c0.306-0.245 0.492-0.609 0.512-1-0.161-0.062-0.335-0.077-0.504-0.043s-0.324 0.115-0.448 0.235v0z"></path>
<path d="M25.116 18.056c0.142-0.352 0.106-0.751-0.096-1.072-0.083-0.143-0.209-0.257-0.359-0.325s-0.318-0.089-0.481-0.059c-0.138 0.353-0.102 0.75 0.096 1.072 0.083 0.143 0.209 0.257 0.359 0.326s0.318 0.089 0.481 0.059v0z"></path>
<path d="M25.285 19.344c-0.397 0.184-0.691 0.536-0.8 0.96 0.144 0.115 0.321 0.184 0.505 0.197s0.368-0.031 0.527-0.124c0.381-0.19 0.659-0.538 0.76-0.952-0.139-0.109-0.308-0.174-0.484-0.189s-0.353 0.024-0.508 0.109v0z"></path>
<path d="M24.381 20.176c0.223-0.362 0.276-0.804 0.144-1.208-0.046-0.183-0.148-0.346-0.291-0.468s-0.321-0.196-0.509-0.212c-0.227 0.36-0.28 0.804-0.144 1.208 0.045 0.183 0.146 0.347 0.29 0.47s0.322 0.196 0.51 0.211v-0z"></path>
<path d="M24.276 21.192c-0.397 0.142-0.71 0.453-0.856 0.848 0.123 0.136 0.285 0.23 0.464 0.272s0.366 0.027 0.536-0.040c0.397-0.136 0.712-0.445 0.856-0.84-0.123-0.137-0.284-0.233-0.463-0.276s-0.366-0.030-0.537 0.036v0z"></path>
<path d="M22.621 21.080c0.024 0.185 0.101 0.358 0.222 0.5s0.28 0.246 0.458 0.3c0.266-0.339 0.371-0.777 0.288-1.2-0.024-0.185-0.101-0.358-0.222-0.5s-0.28-0.246-0.458-0.3c-0.262 0.341-0.367 0.777-0.288 1.2z"></path>
<path d="M22.821 22.896c-0.44-0.031-0.864 0.169-1.12 0.528 0.057 0.196 0.171 0.37 0.328 0.499s0.349 0.209 0.552 0.229c0.441 0.030 0.866-0.174 1.12-0.536-0.058-0.194-0.173-0.366-0.33-0.495s-0.348-0.207-0.55-0.225v0z"></path>
<path d="M21.261 22.008c-0.092 0.438 0.051 0.892 0.376 1.2 0.404-0.273 0.67-0.708 0.728-1.192 0.085-0.439-0.060-0.892-0.384-1.2-0.403 0.273-0.666 0.708-0.72 1.192v0z"></path>
<path d="M20.94 24.064c-0.483-0.037-0.949 0.185-1.224 0.584 0.062 0.215 0.188 0.407 0.36 0.55s0.384 0.23 0.608 0.25c0.482 0.034 0.947-0.188 1.224-0.584-0.059-0.217-0.184-0.41-0.357-0.554s-0.387-0.229-0.611-0.246v0z"></path>
<path d="M20.397 23.096c0.090-0.485-0.072-0.982-0.432-1.32-0.426 0.311-0.699 0.788-0.752 1.312-0.094 0.482 0.062 0.979 0.416 1.32 0.433-0.306 0.713-0.784 0.768-1.312h-0z"></path>
<path d="M6.501 13.896c0.038-0.344-0.072-0.687-0.304-0.944-0.137 0.060-0.255 0.156-0.339 0.279s-0.133 0.267-0.141 0.417c-0.042 0.342 0.066 0.686 0.296 0.944 0.139-0.058 0.258-0.155 0.344-0.278s0.136-0.268 0.144-0.418z"></path>
<path d="M6.004 16c0.024-0.363-0.103-0.719-0.352-0.984-0.098-0.127-0.228-0.226-0.378-0.283s-0.312-0.073-0.47-0.045c-0.030 0.359 0.095 0.715 0.344 0.976 0.1 0.127 0.232 0.225 0.383 0.284s0.314 0.077 0.473 0.052v-0z"></path>
<path d="M6.148 15.92c0.138 0.053 0.288 0.062 0.432 0.026s0.272-0.115 0.368-0.226c0.219-0.259 0.3-0.607 0.216-0.936-0.138-0.050-0.288-0.058-0.431-0.023s-0.271 0.113-0.369 0.223c-0.22 0.258-0.301 0.607-0.216 0.936v0z"></path>
<path d="M6.661 18.128c-0.020-0.395-0.21-0.763-0.52-1.008-0.124-0.119-0.279-0.201-0.448-0.235s-0.344-0.019-0.504 0.043c0.020 0.391 0.206 0.755 0.512 1 0.125 0.12 0.282 0.202 0.451 0.237s0.346 0.022 0.509-0.037v0z"></path>
<path d="M6.909 16.984c-0.202 0.321-0.238 0.72-0.096 1.072 0.163 0.031 0.331 0.010 0.481-0.059s0.276-0.182 0.359-0.326c0.198-0.323 0.234-0.719 0.096-1.072-0.162-0.031-0.331-0.010-0.481 0.059s-0.276 0.182-0.359 0.325v0z"></path>
<path d="M7.413 20.304c-0.109-0.424-0.403-0.776-0.8-0.96-0.159-0.092-0.342-0.134-0.524-0.119s-0.357 0.084-0.5 0.199c0.105 0.417 0.389 0.766 0.776 0.952 0.161 0.098 0.348 0.143 0.535 0.13s0.367-0.084 0.513-0.202v0z"></path>
<path d="M7.404 18.968c-0.132 0.404-0.079 0.846 0.144 1.208 0.188-0.015 0.366-0.089 0.51-0.211s0.245-0.286 0.29-0.469c0.136-0.404 0.083-0.848-0.144-1.208-0.188 0.016-0.365 0.090-0.509 0.212s-0.245 0.286-0.291 0.468h0z"></path>
<path d="M7.653 21.192c-0.171-0.066-0.359-0.079-0.537-0.036s-0.34 0.139-0.463 0.276c0.144 0.395 0.458 0.704 0.856 0.84 0.171 0.067 0.358 0.081 0.536 0.040s0.34-0.136 0.464-0.272c-0.146-0.395-0.459-0.706-0.856-0.848v0z"></path>
<path d="M8.628 21.888c0.178-0.054 0.337-0.158 0.458-0.3s0.198-0.316 0.222-0.5c0.079-0.423-0.026-0.859-0.288-1.2-0.178 0.054-0.337 0.158-0.458 0.3s-0.198 0.316-0.222 0.5c-0.083 0.423 0.022 0.861 0.288 1.2z"></path>
<path d="M9.109 22.896c-0.202 0.019-0.393 0.097-0.55 0.225s-0.272 0.301-0.33 0.495c0.254 0.362 0.679 0.566 1.12 0.536 0.203-0.019 0.395-0.099 0.552-0.229s0.271-0.304 0.328-0.499c-0.256-0.359-0.68-0.559-1.12-0.528v0z"></path>
<path d="M10.293 23.2c0.325-0.308 0.468-0.762 0.376-1.2-0.042-0.479-0.29-0.917-0.68-1.2-0.324 0.308-0.469 0.761-0.384 1.2 0.046 0.48 0.297 0.917 0.688 1.2v0z"></path>
<path d="M10.989 24.064c-0.224 0.017-0.438 0.103-0.611 0.246s-0.298 0.337-0.357 0.554c0.277 0.396 0.742 0.618 1.224 0.584 0.223-0.020 0.435-0.107 0.608-0.25s0.298-0.334 0.36-0.55c-0.275-0.399-0.741-0.621-1.224-0.584v-0z"></path>
<path d="M11.965 21.776c-0.354 0.341-0.51 0.838-0.416 1.32 0.051 0.525 0.325 1.003 0.752 1.312 0.354-0.341 0.51-0.838 0.416-1.32-0.053-0.524-0.326-1.001-0.752-1.312v0z"></path>
<path d="M23.164 13.6c0-1.91-0.759-3.741-2.109-5.091s-3.182-2.109-5.091-2.109c-1.91 0-3.741 0.759-5.091 2.109s-2.109 3.182-2.109 5.091c0 1.91 0.759 3.741 2.109 5.091s3.182 2.109 5.091 2.109c1.91 0 3.741-0.759 5.091-2.109s2.109-3.182 2.109-5.091zM15.964 19.2c-1.485 0-2.91-0.59-3.96-1.64s-1.64-2.475-1.64-3.96c0-1.485 0.59-2.91 1.64-3.96s2.475-1.64 3.96-1.64 2.91 0.59 3.96 1.64c1.050 1.050 1.64 2.475 1.64 3.96s-0.59 2.91-1.64 3.96c-1.050 1.050-2.475 1.64-3.96 1.64z"></path>
<path d="M20.181 12.576c-0.046-0.141-0.13-0.267-0.243-0.363s-0.251-0.159-0.397-0.181l-1.976-0.288-0.88-1.784c-0.088-0.181-0.241-0.323-0.428-0.396s-0.396-0.073-0.584 0c-0.187 0.074-0.34 0.215-0.428 0.396l-0.88 1.784-1.976 0.256c-0.147 0.022-0.284 0.085-0.397 0.181s-0.197 0.222-0.243 0.363c-0.042 0.139-0.046 0.287-0.011 0.428s0.108 0.27 0.211 0.372l1.424 1.392-0.336 1.96 0 0c-0.029 0.15-0.014 0.305 0.043 0.447s0.153 0.264 0.277 0.353c0.116 0.080 0.251 0.128 0.391 0.139s0.281-0.015 0.409-0.076l1.808-0.888 1.768 0.928c0.114 0.058 0.24 0.089 0.368 0.088 0.169 0.001 0.335-0.053 0.472-0.152 0.124-0.089 0.22-0.212 0.277-0.353s0.072-0.297 0.043-0.447l-0.336-1.96 1.408-1.376c0.11-0.103 0.189-0.235 0.227-0.381s0.034-0.299-0.011-0.443l0 0zM17.133 13.936c-0.188 0.186-0.271 0.452-0.224 0.712l0.128 0.8-0.696-0.368c-0.237-0.117-0.515-0.117-0.752 0l-0.696 0.368 0.128-0.8h0c0.047-0.26-0.036-0.526-0.224-0.712l-0.568-0.552 0.8-0.112c0.26-0.039 0.485-0.204 0.6-0.44l0.352-0.712 0.352 0.712h0c0.115 0.236 0.34 0.401 0.6 0.44l0.8 0.112-0.6 0.552z"></path>
</symbol>
<symbol id="click" viewBox="0 0 32 32">
<path d="M26.243 17.419l-2.36-0.728c0.324-2.059-0.032-4.168-1.012-6.007s-2.533-3.31-4.423-4.189c-1.89-0.879-4.014-1.119-6.053-0.684s-3.88 1.522-5.246 3.096c-1.366 1.574-2.183 3.55-2.327 5.63s0.393 4.149 1.529 5.896c1.136 1.747 2.811 3.077 4.77 3.789s4.097 0.767 6.090 0.156l0.496 1.6c0.047 0.151 0.137 0.284 0.259 0.384s0.272 0.161 0.429 0.176h0.072c0.147 0 0.291-0.040 0.417-0.116s0.228-0.186 0.295-0.316l1.224-2.36 1.784 1.8c0.15 0.152 0.355 0.237 0.568 0.237s0.418-0.085 0.568-0.237l2.48-2.488c0.149-0.15 0.233-0.352 0.233-0.564s-0.084-0.414-0.233-0.564l-1.792-1.808 2.4-1.224c0.191-0.097 0.335-0.268 0.4-0.472s0.044-0.427-0.057-0.616c-0.101-0.189-0.274-0.331-0.479-0.391l-0.032 0zM14.387 23.243c-2.122 0-4.157-0.843-5.657-2.343s-2.343-3.535-2.343-5.657c0-2.122 0.843-4.157 2.343-5.657s3.535-2.343 5.657-2.343c2.122 0 4.157 0.843 5.657 2.343s2.343 3.535 2.343 5.657c-0.004 0.345-0.028 0.69-0.072 1.032l-2.296-0.712v-0.32c0.019-1.511-0.565-2.966-1.623-4.045s-2.503-1.69-4.014-1.699-2.963 0.585-4.034 1.65c-1.071 1.065-1.673 2.514-1.673 4.024s0.604 2.959 1.676 4.023c1.072 1.064 2.525 1.657 4.035 1.646 0.561 0.004 1.12-0.080 1.656-0.248l0.696 2.248c-0.76 0.249-1.553 0.384-2.352 0.4zM15.323 14.043c-0.139-0.042-0.287-0.046-0.428-0.011s-0.27 0.108-0.372 0.211c-0.103 0.103-0.176 0.231-0.211 0.372s-0.031 0.289 0.011 0.428l1.248 4c-0.382 0.124-0.782 0.189-1.184 0.192-1.071 0.003-2.099-0.415-2.863-1.165s-1.203-1.77-1.22-2.84c-0.018-1.070 0.387-2.104 1.126-2.879s1.754-1.226 2.824-1.258c1.070-0.032 2.109 0.359 2.894 1.088s1.25 1.737 1.296 2.806l-3.12-0.944zM18.66 23.643l-2.36-7.6 7.608 2.352-3.2 1.68c-0.148 0.076-0.268 0.196-0.344 0.344l-1.704 3.224zM24.123 22.507l-1.352 1.352-1.6-1.6 0.464-0.896 0.888-0.464 1.6 1.608z"></path>
</symbol>
<symbol id="achievement" viewBox="0 0 32 32">
<path d="M3.454 12.109c-0.143 0.12-0.25 0.277-0.309 0.455s-0.066 0.367-0.023 0.549c0.079 0.417 0.331 0.782 0.693 1.004 0.141-0.121 0.246-0.279 0.303-0.456s0.063-0.367 0.018-0.547c-0.075-0.416-0.323-0.781-0.683-1.004v0z"></path>
<path d="M2.4 14.598c0.106 0.425 0.382 0.788 0.763 1.004 0.162 0.115 0.352 0.184 0.55 0.199s0.396-0.022 0.575-0.109c-0.109-0.424-0.384-0.786-0.763-1.004-0.163-0.113-0.353-0.181-0.55-0.197s-0.396 0.021-0.574 0.106v0z"></path>
<path d="M5.281 13.916c0.21 0.362 0.233 0.803 0.060 1.185-0.075 0.17-0.202 0.312-0.362 0.405s-0.346 0.134-0.531 0.117c-0.217-0.356-0.243-0.795-0.070-1.174 0.075-0.173 0.203-0.317 0.365-0.413s0.35-0.137 0.538-0.12v0z"></path>
<path d="M3.665 17.188c0.176 0.462 0.541 0.828 1.004 1.004 0.19 0.094 0.402 0.133 0.613 0.114s0.412-0.097 0.582-0.224c-0.171-0.466-0.538-0.833-1.004-1.004-0.189-0.097-0.402-0.139-0.613-0.119s-0.413 0.099-0.581 0.23h-0z"></path>
<path d="M6.576 15.863c0.299 0.372 0.397 0.867 0.261 1.325-0.050 0.197-0.157 0.375-0.31 0.509s-0.342 0.219-0.544 0.244c-0.279-0.382-0.361-0.873-0.221-1.325 0.047-0.191 0.149-0.365 0.293-0.499s0.325-0.222 0.52-0.254z"></path>
<path d="M5.070 19.949c0.264 0.454 0.717 0.767 1.235 0.853 0.22 0.056 0.452 0.042 0.664-0.039s0.394-0.225 0.521-0.413c-0.264-0.454-0.717-0.767-1.235-0.853-0.22-0.056-0.452-0.042-0.663 0.039s-0.394 0.225-0.521 0.413z"></path>
<path d="M7.69 17.701c0.39 0.349 0.607 0.852 0.592 1.375 0.023 0.235-0.030 0.471-0.151 0.673s-0.304 0.361-0.521 0.452c-0.394-0.347-0.615-0.85-0.602-1.375-0.020-0.235 0.035-0.471 0.158-0.674s0.307-0.36 0.525-0.451v0z"></path>
<path d="M6.997 21.947c0.31 0.42 0.794 0.675 1.315 0.693 0.225 0.018 0.45-0.033 0.646-0.146s0.352-0.282 0.449-0.486c-0.309-0.42-0.794-0.675-1.315-0.693-0.225-0.018-0.45 0.033-0.646 0.146s-0.352 0.283-0.449 0.486v0z"></path>
<path d="M9.246 19.286c0.43 0.309 0.708 0.788 0.763 1.315 0.040 0.227 0.012 0.461-0.081 0.672s-0.246 0.389-0.441 0.513c-0.41-0.321-0.668-0.797-0.713-1.315-0.045-0.222-0.024-0.452 0.059-0.663s0.227-0.392 0.413-0.522v0z"></path>
<path d="M9.638 23.975c0.428 0.332 0.998 0.42 1.506 0.231 0.232-0.093 0.432-0.254 0.571-0.461s0.214-0.453 0.212-0.703c-0.208-0.168-0.457-0.278-0.722-0.318s-0.535-0.011-0.784 0.087c-0.233 0.092-0.433 0.252-0.573 0.46s-0.213 0.454-0.21 0.704v0z"></path>
<path d="M10.712 20.039c0.564 0.187 1.016 0.613 1.235 1.165 0.264 0.485 0.264 1.071 0 1.556-0.557-0.198-1.005-0.62-1.235-1.165-0.26-0.486-0.26-1.070 0-1.556z"></path>
<path d="M12.188 24.798c0.47 0.368 1.098 0.463 1.656 0.251 0.254-0.102 0.471-0.279 0.623-0.506s0.232-0.495 0.231-0.769c-0.465-0.371-1.090-0.47-1.646-0.261-0.256 0.103-0.476 0.28-0.63 0.51s-0.235 0.499-0.234 0.775l0-0z"></path>
<path d="M13.372 20.481c0.613 0.212 1.107 0.676 1.355 1.275 0.297 0.53 0.297 1.176 0 1.707-0.616-0.203-1.116-0.66-1.375-1.255-0.292-0.54-0.285-1.193 0.020-1.727v0z"></path>
<path d="M28.149 12.109c0.143 0.12 0.25 0.277 0.309 0.455s0.066 0.367 0.023 0.549c-0.079 0.417-0.331 0.782-0.693 1.004-0.141-0.121-0.246-0.279-0.303-0.456s-0.063-0.367-0.018-0.547c0.075-0.416 0.323-0.781 0.683-1.004v0z"></path>
<path d="M29.203 14.598c-0.106 0.425-0.382 0.788-0.763 1.004-0.162 0.115-0.352 0.184-0.55 0.199s-0.396-0.022-0.575-0.109c0.109-0.424 0.384-0.786 0.763-1.004 0.163-0.113 0.353-0.181 0.55-0.197s0.395 0.021 0.574 0.106h0z"></path>
<path d="M26.322 13.916c-0.21 0.362-0.233 0.803-0.060 1.185 0.075 0.17 0.202 0.312 0.362 0.405s0.346 0.134 0.531 0.117c0.217-0.356 0.243-0.795 0.070-1.174-0.075-0.173-0.203-0.317-0.365-0.413s-0.35-0.137-0.538-0.12v0z"></path>
<path d="M27.938 17.188c-0.176 0.462-0.541 0.828-1.004 1.004-0.19 0.094-0.402 0.133-0.613 0.114s-0.412-0.097-0.582-0.224c0.171-0.466 0.538-0.833 1.004-1.004 0.189-0.097 0.402-0.139 0.614-0.119s0.413 0.099 0.581 0.23h0z"></path>
<path d="M25.027 15.863c-0.299 0.372-0.397 0.867-0.261 1.325 0.050 0.197 0.157 0.375 0.31 0.509s0.342 0.219 0.544 0.244c0.279-0.382 0.361-0.873 0.221-1.325-0.047-0.191-0.149-0.365-0.293-0.499s-0.325-0.222-0.52-0.254z"></path>
<path d="M26.533 19.949c-0.264 0.454-0.717 0.767-1.235 0.853-0.22 0.056-0.452 0.042-0.664-0.039s-0.394-0.225-0.521-0.413c0.264-0.454 0.717-0.767 1.235-0.853 0.22-0.056 0.452-0.042 0.663 0.039s0.394 0.225 0.521 0.413z"></path>
<path d="M23.913 17.701c-0.39 0.349-0.607 0.852-0.592 1.375-0.023 0.235 0.030 0.471 0.151 0.673s0.304 0.361 0.521 0.452c0.394-0.347 0.615-0.85 0.602-1.375 0.020-0.235-0.035-0.471-0.158-0.674s-0.307-0.36-0.525-0.451v0z"></path>
<path d="M24.606 21.947c-0.31 0.42-0.794 0.675-1.315 0.693-0.225 0.018-0.45-0.033-0.646-0.146s-0.352-0.282-0.449-0.486c0.309-0.42 0.794-0.675 1.315-0.693 0.225-0.018 0.45 0.033 0.646 0.146s0.352 0.283 0.449 0.486v0z"></path>
<path d="M22.356 19.286c-0.43 0.309-0.708 0.788-0.763 1.315-0.040 0.227-0.012 0.461 0.081 0.672s0.246 0.389 0.441 0.513c0.428-0.311 0.705-0.789 0.763-1.315 0.040-0.227 0.012-0.461-0.081-0.672s-0.246-0.389-0.441-0.513v0z"></path>
<path d="M21.965 23.975c-0.428 0.332-0.998 0.42-1.506 0.231-0.232-0.093-0.432-0.254-0.571-0.461s-0.214-0.453-0.212-0.703c0.208-0.168 0.457-0.278 0.722-0.318s0.535-0.011 0.784 0.087c0.233 0.092 0.433 0.252 0.573 0.46s0.213 0.454 0.21 0.704v0z"></path>
<path d="M20.891 20.039c-0.564 0.187-1.016 0.613-1.235 1.165-0.264 0.485-0.264 1.071 0 1.556 0.557-0.198 1.005-0.62 1.235-1.165 0.26-0.486 0.26-1.070 0-1.556z"></path>
<path d="M19.415 24.798c-0.47 0.368-1.098 0.463-1.656 0.251-0.254-0.102-0.471-0.279-0.623-0.506s-0.232-0.495-0.231-0.769c0.465-0.371 1.090-0.47 1.646-0.261 0.256 0.103 0.476 0.28 0.63 0.51s0.236 0.499 0.234 0.775l-0-0z"></path>
<path d="M18.231 20.481c-0.613 0.212-1.107 0.676-1.355 1.275-0.297 0.53-0.297 1.176 0 1.707 0.616-0.203 1.116-0.66 1.375-1.255 0.292-0.54 0.285-1.193-0.020-1.727h-0z"></path>
<path d="M10.622 18.192c0.254 0.003 0.498-0.097 0.677-0.276s0.279-0.424 0.276-0.677v-0.733c0.008-0.321 0.138-0.627 0.364-0.854s0.53-0.361 0.851-0.371h6.023c0.331 0 0.649 0.131 0.884 0.364s0.368 0.55 0.371 0.881v0.733c-0.028 0.268 0.060 0.536 0.241 0.737s0.438 0.315 0.708 0.315c0.27 0 0.527-0.115 0.708-0.315s0.268-0.468 0.241-0.737v-0.733c0-0.836-0.332-1.638-0.923-2.229s-1.393-0.923-2.229-0.923h-6.023c-0.829 0.011-1.621 0.347-2.203 0.937s-0.909 1.386-0.909 2.215v0.733c0.003 0.249 0.103 0.486 0.28 0.661s0.415 0.273 0.664 0.273l-0 0z"></path>
<path d="M15.801 12.641c0.722 0 1.414-0.287 1.924-0.797s0.797-1.202 0.797-1.924-0.287-1.414-0.797-1.924c-0.51-0.51-1.202-0.797-1.924-0.797s-1.414 0.287-1.924 0.797c-0.51 0.51-0.797 1.202-0.797 1.924 0.003 0.721 0.29 1.411 0.8 1.921s1.2 0.797 1.921 0.8l0 0zM15.801 9.158c0.329 0 0.625 0.198 0.751 0.502s0.056 0.654-0.176 0.886c-0.233 0.233-0.582 0.302-0.886 0.176s-0.502-0.422-0.502-0.751c0-0.216 0.086-0.423 0.238-0.575s0.359-0.238 0.575-0.238v0z"></path>
</symbol>
<symbol id="icon-burger" viewBox="0 0 32 32">
<path d="M1.28 5.76h29.44c0.707 0 1.28 0.573 1.28 1.28s-0.573 1.28-1.28 1.28h-29.44c-0.707 0-1.28-0.573-1.28-1.28s0.573-1.28 1.28-1.28z"></path>
<path d="M1.28 14.72h29.44c0.707 0 1.28 0.573 1.28 1.28s-0.573 1.28-1.28 1.28h-29.44c-0.707 0-1.28-0.573-1.28-1.28s0.573-1.28 1.28-1.28z"></path>
<path d="M1.28 23.68h29.44c0.707 0 1.28 0.573 1.28 1.28s-0.573 1.28-1.28 1.28h-29.44c-0.707 0-1.28-0.573-1.28-1.28s0.573-1.28 1.28-1.28z"></path>
</symbol>
<symbol id="icon-check" viewBox="0 0 32 32">
<path fill="none" stroke="#e0ff00" style="stroke: var(--color1, #e0ff00)" stroke-linejoin="miter" stroke-linecap="butt" stroke-miterlimit="4" stroke-width="6" d="M4 16.5l9.5 9.5 14.5-24"></path>
</symbol>
</defs>
</svg>
